<?xml version="1.0" encoding="UTF-8" standalone="no"?>
<!-- Created with Inkscape (http://www.inkscape.org/) -->

<svg xmlns:dc="http://purl.org/dc/elements/1.1/" xmlns:cc="http://creativecommons.org/ns#"
  xmlns:rdf="http://www.w3.org/1999/02/22-rdf-syntax-ns#" xmlns:svg="http://www.w3.org/2000/svg" xmlns="http://www.w3.org/2000/svg"
  xmlns:xlink="http://www.w3.org/1999/xlink" xmlns:sodipodi="http://sodipodi.sourceforge.net/DTD/sodipodi-0.dtd"
  xmlns:inkscape="http://www.inkscape.org/namespaces/inkscape" id="svg2" version="1.1" inkscape:version="0.91 r13725"
  width="210mm" height="297mm" viewBox="0 0 744.09497 1052.3625" sodipodi:docname="Vorderseite.org.svg">
  <metadata id="metadata8">
    <rdf:RDF>
      <cc:Work rdf:about="">
        <dc:format>image/svg+xml</dc:format>
        <dc:type rdf:resource="http://purl.org/dc/dcmitype/StillImage"/>
        <dc:title/>
      </cc:Work>
    </rdf:RDF>
  </metadata>
  <defs id="defs6">
    <clipPath clipPathUnits="userSpaceOnUse" id="clipPath18">
      <path d="m 425.197,28.346 141.732,0 0,106.163 -141.732,0 0,-106.163 z" id="path20" inkscape:connector-curvature="0"/>
    </clipPath>
    <clipPath clipPathUnits="userSpaceOnUse" id="clipPath268">
      <path d="m 0,0 595.276,0 0,841.89 L 0,841.89 0,0 Z" id="path270" inkscape:connector-curvature="0"/>
    </clipPath>
    <clipPath clipPathUnits="userSpaceOnUse" id="clipPath276">
      <path d="m 69.8649,828.717 512.2371,0 0,-472.552 -512.2371,0 0,472.552 z" id="path278" inkscape:connector-curvature="0"/>
    </clipPath>
    <clipPath clipPathUnits="userSpaceOnUse" id="clipPath280">
      <path d="m 77.952,357.165 503.15,0 0,382.013 -503.15,0 0,-382.013 z" id="path282" inkscape:connector-curvature="0"/>
    </clipPath>
    <clipPath clipPathUnits="userSpaceOnUse" id="clipPath324">
      <path d="m 0,0 595.276,0 0,841.89 L 0,841.89 0,0 Z" id="path326" inkscape:connector-curvature="0"/>
    </clipPath>
  </defs>
  <sodipodi:namedview pagecolor="#ffffff" bordercolor="#666666" borderopacity="1" objecttolerance="10" gridtolerance="10"
    guidetolerance="10" inkscape:pageopacity="0" inkscape:pageshadow="2" inkscape:window-width="2048" inkscape:window-height="1089"
    id="namedview4" showgrid="false" inkscape:zoom="2.4969931" inkscape:cx="372.04749" inkscape:cy="766.47029"
    inkscape:window-x="1272" inkscape:window-y="-8" inkscape:window-maximized="1" inkscape:current-layer="g10" units="mm"
    inkscape:document-units="mm" inkscape:showpageshadow="false"/>
  <g id="g10" inkscape:groupmode="layer" inkscape:label="Neu_im_Sortiment" transform="matrix(1.25,0,0,-1.25,0,1052.3625)">
    <path d="m 85.039,14.173 496.063,0 0,813.543 -496.063,0 0,-813.543 z"
      style="fill:#eeebea device-cmyk(0,0.014,0.012,0.074);fill-opacity:1;fill-rule:nonzero;stroke:none" id="path12" inkscape:connector-curvature="0"/>
    <g id="g14">
      <g id="g16" clip-path="url(#clipPath18)" style="fill:#a29489 device-cmyk(0,0.12,0.2,0.7);fill-opacity:1;fill-rule:nonzero;stroke:none">
        <g id="g22" transform="translate(459.1153,110.9298)">
          <path
            d="m 0,0 c -3.264,0 -5.908,2.644 -5.908,5.908 0,3.264 2.644,5.908 5.908,5.908 3.263,0 5.908,-2.644 5.908,-5.908 C 5.908,2.644 3.263,0 0,0"
            style="fill:#3e5cb3 device-cmyk(0.85,0.65,0,0);fill-opacity:1;fill-rule:nonzero;stroke:none" id="path24" inkscape:connector-curvature="0"/>
        </g>
        <g style="fill:#a29489 device-cmyk(0,0.072,0.12,0.42)">
          <g id="g26" transform="translate(459.1146,134.5032)">
            <path
              d="m 0,0 c -2.075,0 -4.058,-0.377 -5.908,-1.034 l 0,-7.778 c 1.69,1.13 3.722,1.791 5.908,1.791 5.88,0 10.645,-4.764 10.645,-10.645 0,-5.879 -4.765,-10.643 -10.645,-10.643 -5.876,0 -10.637,4.758 -10.643,10.633 l -0.012,0 0,14.077 c -4.252,-3.226 -7.01,-8.317 -7.01,-14.067 0,-9.755 7.909,-17.664 17.665,-17.664 9.757,0 17.666,7.909 17.666,17.664 C 17.666,-7.909 9.757,0 0,0"
              id="path28" inkscape:connector-curvature="0"/>
          </g>
          <g id="g30" transform="translate(436.5981,122.2918)">
            <path 
              d="m 0,0 c -0.784,0.496 -1.793,0.761 -2.886,0.761 -1.147,0 -1.735,-0.586 -1.735,-1.258 0,-1.14 1.651,-2.076 3.558,-3.916 2.519,-2.456 3.136,-4.005 3.136,-6.138 0,-1.813 -1.428,-6.021 -7.311,-6.021 -2.298,0 -4.593,0.554 -6.163,1.87 l 1.794,3.391 c 0.839,-0.672 1.96,-1.432 3.362,-1.432 1.176,0 2.464,0.613 2.464,2.134 0,1.636 -1.904,2.834 -3.447,4.237 -2.043,1.871 -3.248,2.952 -3.248,5.466 0,3.274 3.165,5.495 6.863,5.495 2.493,0 4.453,-0.936 5.125,-1.374 L 0,0"
              id="path32" inkscape:connector-curvature="0"/>
          </g>
          <g id="g34" transform="translate(490.281,122.2918)">
            <path
              d="m 0,0 c -0.784,0.496 -1.791,0.761 -2.885,0.761 -1.148,0 -1.736,-0.586 -1.736,-1.258 0,-1.14 1.652,-2.076 3.558,-3.916 2.52,-2.456 3.136,-4.005 3.136,-6.138 0,-1.813 -1.429,-6.021 -7.311,-6.021 -2.297,0 -4.593,0.554 -6.163,1.87 l 1.794,3.391 c 0.84,-0.672 1.96,-1.432 3.362,-1.432 1.175,0 2.465,0.613 2.465,2.134 0,1.636 -1.906,2.834 -3.447,4.237 -2.045,1.871 -3.249,2.952 -3.249,5.466 0,3.274 3.165,5.495 6.864,5.495 2.493,0 4.452,-0.936 5.125,-1.374 L 0,0"
              id="path36" inkscape:connector-curvature="0"/>
          </g>
        </g>
        <g id="g38" transform="translate(455.2994,73.8546)">
          <path
            d="m 0,0 c -0.917,0 -1.752,0.334 -2.351,0.942 l 0.993,1.537 c 0.353,-0.403 0.78,-0.617 1.289,-0.617 0.327,0 0.847,0.181 0.847,0.667 0,0.466 -0.452,0.636 -1.024,0.851 -0.881,0.332 -1.978,0.745 -1.978,2.473 0,1.606 1.277,2.472 2.478,2.472 0.777,0 1.57,-0.334 2.174,-0.918 L 1.524,6.007 C 1.092,6.392 0.806,6.59 0.303,6.59 0.01,6.59 -0.396,6.386 -0.396,6.003 -0.396,5.529 0.054,5.366 0.624,5.159 1.507,4.838 2.605,4.44 2.605,2.667 2.605,1.047 1.583,0 0,0"
            id="path40" inkscape:connector-curvature="0"/>
        </g>
        <g id="g42" transform="translate(463.8251,73.8546)">
          <path
            d="m 0,0 c -2.069,0 -3.515,1.702 -3.515,4.14 0,2.425 1.475,4.185 3.505,4.185 0.424,0 0.808,-0.089 1.112,-0.257 L 1.373,5.938 C 1.004,6.167 0.585,6.464 0.117,6.464 c -1.119,0 -1.902,-0.937 -1.902,-2.278 0,-1.39 0.765,-2.324 1.902,-2.324 0.461,0 0.929,0.314 1.24,0.578 L 1.207,0.318 C 0.908,0.114 0.296,0 0,0"
            id="path44" inkscape:connector-curvature="0"/>
        </g>
        <g id="g46" transform="translate(472.0237,73.9428)">
          <path
            d="M 0,0 0,3.35 -2.118,3.316 -2.084,0.221 -3.776,0.004 -3.813,8.019 -2.121,8.237 -2.084,5.144 0.034,5.178 0,8.019 1.692,8.237 1.729,0.221 0,0 Z"
            id="path48" inkscape:connector-curvature="0"/>
        </g>
        <g id="g50" transform="translate(483.0722,73.8546)">
          <path
            d="M 0,0 -0.065,0 -1.934,4.772 -3.872,0.021 -3.939,0.024 -6.247,8.052 -4.576,8.325 -3.581,4.274 -1.953,8.305 -0.229,4.222 0.724,8.3 2.375,8.095 0,0 Z"
            id="path52" inkscape:connector-curvature="0"/>
        </g>
        <g id="g54" transform="translate(492.4688,74.0386)">
          <path
            d="M 0,0 -3.908,0 -3.942,7.923 -0.114,7.957 0.212,6.262 -2.246,6.222 -2.212,4.887 -0.515,4.921 -0.482,3.22 -2.246,3.186 -2.212,1.701 0.384,1.735 0,0 Z"
            id="path56" inkscape:connector-curvature="0"/>
        </g>
        <g id="g58" transform="translate(496.2512,73.9428)">
          <path d="M 0,0 0,8.019 1.692,8.237 1.729,0.221 0,0 Z" 
            id="path60" inkscape:connector-curvature="0"/>
        </g>
        <g id="g62" transform="translate(506.8719,74.0386)">
          <path d="M 0,0 -5.708,0 -2.502,6.145 -5.269,6.096 -4.978,7.929 0.246,7.957 -2.941,1.812 0.344,1.862 0,0 Z"
            id="path64" inkscape:connector-curvature="0"/>
        </g>
        <g id="g66" transform="translate(514.517,74.0386)">
          <path
            d="M 0,0 -3.909,0 -3.943,7.923 -0.115,7.957 0.211,6.262 -2.247,6.222 -2.213,4.887 -0.516,4.921 -0.482,3.22 -2.247,3.186 -2.213,1.701 0.383,1.735 0,0 Z"
            id="path68" inkscape:connector-curvature="0"/>
        </g>
        <g id="g70" transform="translate(519.9854,80.2652)">
          <path
            d="m 0,0 c -0.054,0 -0.109,-0.002 -0.164,-0.004 l 0.031,-2.175 c 0.027,0.029 0.086,0.028 0.14,0.027 0.328,0 0.584,0.084 0.762,0.249 0.2,0.187 0.302,0.481 0.302,0.874 C 1.071,-0.117 0.499,0 0,0 m 1.792,-6.419 -1.969,3.753 0.044,-3.435 -1.692,-0.217 -0.038,8.015 1.921,0.034 c 1.793,0 2.741,-0.855 2.741,-2.472 0,-0.747 -0.345,-1.701 -1.105,-2.032 L 3.519,-5.727 1.792,-6.419 Z"
            id="path72" inkscape:connector-curvature="0"/>
        </g>
        <g id="g74" transform="translate(526.5403,73.9428)">
          <path d="M 0,0 0,8.019 1.691,8.237 1.729,0.221 0,0 Z" 
            id="path76" inkscape:connector-curvature="0"/>
        </g>
        <g id="g78" transform="translate(534.2098,73.8546)">
          <path
            d="m 0,0 c -0.917,0 -1.752,0.334 -2.351,0.942 l 0.993,1.537 c 0.353,-0.403 0.779,-0.617 1.29,-0.617 0.326,0 0.846,0.181 0.846,0.667 0,0.466 -0.452,0.636 -1.024,0.851 -0.881,0.332 -1.977,0.745 -1.977,2.473 0,1.606 1.276,2.472 2.477,2.472 0.778,0 1.571,-0.334 2.175,-0.918 L 1.524,6.007 C 1.091,6.392 0.806,6.59 0.303,6.59 c -0.294,0 -0.7,-0.204 -0.7,-0.587 0,-0.474 0.45,-0.637 1.021,-0.844 C 1.507,4.838 2.606,4.44 2.606,2.667 2.606,1.047 1.583,0 0,0"
            id="path80" inkscape:connector-curvature="0"/>
        </g>
        <g id="g82" transform="translate(543.3907,73.8546)">
          <path
            d="m 0,0 c -2.07,0 -3.515,1.702 -3.515,4.14 0,2.425 1.474,4.185 3.506,4.185 0.423,0 0.807,-0.089 1.111,-0.257 L 1.374,5.938 C 1.005,6.167 0.585,6.464 0.117,6.464 c -1.12,0 -1.902,-0.937 -1.902,-2.278 0,-1.39 0.765,-2.324 1.902,-2.324 0.462,0 0.928,0.314 1.239,0.578 L 1.207,0.318 C 0.907,0.114 0.296,0 0,0"
            id="path84" inkscape:connector-curvature="0"/>
        </g>
        <g id="g86" transform="translate(552.0479,73.9428)">
          <path
            d="M 0,0 0,3.35 -2.116,3.316 -2.083,0.221 -3.775,0.004 -3.812,8.019 -2.12,8.237 -2.083,5.144 0.034,5.178 0,8.019 1.692,8.237 1.73,0.221 0,0 Z"
            id="path88" inkscape:connector-curvature="0"/>
        </g>
        <g id="g90" transform="translate(561.5239,74.0386)">
          <path
            d="M 0,0 -3.909,0 -3.943,7.923 -0.115,7.957 0.212,6.262 -2.246,6.222 -2.213,4.887 -0.515,4.921 -0.482,3.22 -2.246,3.186 -2.213,1.701 0.384,1.735 0,0 Z"
            id="path92" inkscape:connector-curvature="0"/>
        </g>
        <g id="g94" transform="translate(455.0755,65.022)">
          <path
            d="m 0,0 0,-1.553 0.387,0.033 c 0.482,0 0.748,0.278 0.748,0.783 C 1.135,-0.072 0.57,0 0.328,0 L 0,0 Z m 0,-3.14 0,-1.61 0.406,0.033 c 0.622,0 0.925,0.252 0.925,0.772 0,0.668 -0.378,0.805 -0.944,0.805 L 0,-3.14 Z m 0.592,-3.197 -2.288,0 -0.034,7.923 1.931,0.034 c 0.994,0 2.663,-0.274 2.663,-2.104 0,-0.762 -0.344,-1.408 -0.898,-1.687 0.664,-0.277 1.094,-1.052 1.094,-1.936 0,-1.418 -0.899,-2.23 -2.468,-2.23"
            id="path96" inkscape:connector-curvature="0"/>
        </g>
        <g id="g98" transform="translate(461.5489,58.5888)">
          <path d="M 0,0 0,8.019 1.692,8.237 1.73,0.221 0,0 Z" 
            id="path100" inkscape:connector-curvature="0"/>
        </g>
        <g id="g102" transform="translate(468.8607,65.022)">
          <path
            d="m 0,0 0,-1.553 0.387,0.033 c 0.482,0 0.748,0.278 0.748,0.783 C 1.135,-0.072 0.57,0 0.328,0 L 0,0 Z m 0,-3.14 0,-1.61 0.406,0.033 c 0.622,0 0.925,0.252 0.925,0.772 0,0.668 -0.378,0.805 -0.944,0.805 L 0,-3.14 Z m 0.592,-3.197 -2.288,0 -0.034,7.923 1.931,0.034 c 0.994,0 2.663,-0.274 2.663,-2.104 0,-0.762 -0.344,-1.408 -0.898,-1.687 0.664,-0.277 1.094,-1.052 1.094,-1.936 0,-1.418 -0.899,-2.23 -2.468,-2.23"
            id="path104" inkscape:connector-curvature="0"/>
        </g>
        <g id="g106" transform="translate(478.6108,58.6848)">
          <path d="M 0,0 -3.448,0 -3.482,7.923 -1.79,8.141 -1.752,1.828 0.414,1.861 0,0 Z"
            id="path108" inkscape:connector-curvature="0"/>
        </g>
        <g id="g110" transform="translate(482.1974,58.5888)">
          <path d="M 0,0 0,8.019 1.692,8.237 1.73,0.221 0,0 Z" 
            id="path112" inkscape:connector-curvature="0"/>
        </g>
        <g id="g114" transform="translate(490.7766,64.9644)">
          <path
            d="m 0,0 c -1.002,0 -1.882,-1.075 -1.882,-2.301 0,-1.225 0.88,-2.301 1.882,-2.301 1.003,0 1.883,1.076 1.883,2.301 C 1.883,-1.075 1.003,0 0,0 m 0,-6.464 c -1.991,0 -3.612,1.868 -3.612,4.163 0,2.295 1.621,4.162 3.612,4.162 1.992,0 3.613,-1.867 3.613,-4.162 0,-2.295 -1.621,-4.163 -3.613,-4.163"
            id="path116" inkscape:connector-curvature="0"/>
        </g>
        <g id="g118" transform="translate(498.5151,58.5888)">
          <path d="M 0,0 0,6.225 -1.687,6.192 -1.3,8.027 3.309,8.053 3.342,6.225 1.696,6.192 1.729,0.221 0,0 Z"
            id="path120" inkscape:connector-curvature="0"/>
        </g>
        <g id="g122" transform="translate(508.83,58.5888)">
          <path
            d="M 0,0 0,3.35 -2.116,3.317 -2.083,0.221 -3.775,0.004 -3.813,8.019 -2.12,8.237 -2.083,5.144 0.033,5.178 0,8.019 1.692,8.237 1.729,0.221 0,0 Z"
            id="path124" inkscape:connector-curvature="0"/>
        </g>
        <g id="g126" transform="translate(518.2079,58.6848)">
          <path
            d="M 0,0 -3.908,0 -3.941,7.923 -0.115,7.957 0.211,6.262 -2.245,6.222 -2.212,4.887 -0.516,4.921 -0.482,3.219 -2.245,3.185 -2.212,1.702 0.384,1.735 0,0 Z"
            id="path128" inkscape:connector-curvature="0"/>
        </g>
        <g id="g130" transform="translate(525.4395,58.4947)">
          <path
            d="M 0,0 -2.213,3.945 -2.199,0.315 -3.891,0.098 -3.928,8.113 -2.236,8.331 -2.199,4.732 0.026,8.316 1.698,7.813 -0.484,4.334 1.796,0.575 0,0 Z"
            id="path132" inkscape:connector-curvature="0"/>
        </g>
        <g id="g134" transform="translate(534.5237,58.5908)">
          <path d="M 0,0 0,8.017 3.574,8.051 4.008,6.231 1.696,6.19 1.73,4.533 3.348,4.566 3.382,2.865 1.696,2.831 1.73,0.128 0,0 Z"
            id="path136" inkscape:connector-curvature="0"/>
        </g>
        <g id="g138" transform="translate(543.4171,66.9927)">
          <path
            d="M 0,0 -0.857,1.008 -0.046,2.018 0.837,1.052 0,0 Z M 1.925,0 1.068,1.008 1.88,2.018 2.763,1.052 1.925,0 Z M 0.821,-8.492 c -1.712,0 -2.693,1.027 -2.693,2.817 l 0,5.29 1.692,0.218 0.038,-4.956 c 0,-1.028 0.318,-1.508 1.002,-1.508 0.977,0 1.169,0.71 1.169,1.934 l 0,4.312 1.691,0.218 0.037,-5.37 c 0,-1.795 -1.153,-2.955 -2.936,-2.955"
            id="path140" inkscape:connector-curvature="0"/>
        </g>
        <g id="g142" transform="translate(552.5283,64.9117)">
          <path
            d="m 0,0 c -0.054,0 -0.109,-0.002 -0.164,-0.005 l 0.031,-2.174 c 0.027,0.029 0.086,0.025 0.14,0.026 0.329,0 0.584,0.084 0.762,0.25 0.201,0.186 0.302,0.481 0.302,0.874 C 1.071,-0.117 0.499,0 0,0 m 1.792,-6.42 -1.968,3.753 0.043,-3.435 -1.692,-0.217 -0.037,8.015 1.92,0.034 C 1.852,1.73 2.8,0.876 2.8,-0.742 2.8,-1.488 2.454,-2.442 1.694,-2.774 L 3.52,-5.727 1.792,-6.42 Z"
            id="path144" inkscape:connector-curvature="0"/>
        </g>
        <g id="g146" transform="translate(455.0755,50.3388)">
          <path
            d="m 0,0 0,-1.553 0.387,0.033 c 0.482,0 0.748,0.278 0.748,0.783 C 1.135,-0.072 0.57,0 0.328,0 L 0,0 Z m 0,-3.14 0,-1.611 0.406,0.034 c 0.622,0 0.925,0.252 0.925,0.771 0,0.669 -0.378,0.806 -0.944,0.806 L 0,-3.14 Z m 0.592,-3.197 -2.288,0 -0.034,7.923 1.931,0.034 c 0.994,0 2.663,-0.274 2.663,-2.104 0,-0.762 -0.344,-1.408 -0.898,-1.687 0.664,-0.277 1.094,-1.052 1.094,-1.936 0,-1.418 -0.899,-2.23 -2.468,-2.23"
            id="path148" inkscape:connector-curvature="0"/>
        </g>
        <g id="g150" transform="translate(465.0402,44.0017)">
          <path d="M 0,0 -3.448,0 -3.482,7.923 -1.79,8.141 -1.752,1.828 0.414,1.861 0,0 Z"
            id="path152" inkscape:connector-curvature="0"/>
        </g>
        <g id="g154" transform="translate(468.4312,43.9056)">
          <path d="M 0,0 0,8.019 1.692,8.237 1.73,0.221 0,0 Z" 
            id="path156" inkscape:connector-curvature="0"/>
        </g>
        <g id="g158" transform="translate(479.9673,43.8176)">
          <path
            d="M 0,0 -0.054,0 -4.467,4.518 -4.409,0.309 -6.101,0.092 -6.139,8.291 -6.062,8.315 -1.672,3.899 -1.73,8.107 -0.038,8.325 0,0 Z"
            id="path160" inkscape:connector-curvature="0"/>
        </g>
        <g id="g162" transform="translate(485.3637,50.2238)">
          <path
            d="m 0,0 0,-4.521 0.485,0.034 c 1.026,0 1.892,1.027 1.892,2.243 C 2.377,-1.028 1.511,0 0.485,0 L 0,0 Z m 0.632,-6.222 -2.327,0 -0.034,7.923 2.361,0.034 c 1.948,0 3.475,-1.748 3.475,-3.979 0,-2.23 -1.527,-3.978 -3.475,-3.978"
            id="path164" inkscape:connector-curvature="0"/>
        </g>
        <g id="g166" transform="translate(496.8155,44.0017)">
          <path
            d="M 0,0 -3.908,0 -3.942,7.923 -0.114,7.957 0.212,6.262 -2.246,6.222 -2.213,4.887 -0.516,4.921 -0.482,3.219 -2.246,3.186 -2.213,1.701 0.384,1.735 0,0 Z"
            id="path168" inkscape:connector-curvature="0"/>
        </g>
        <g id="g170" transform="translate(501.0558,42.0463)">
          <path d="M 0,0 -1.246,0 -0.29,4.079 1.555,4.414 0,0 Z" 
            id="path172" inkscape:connector-curvature="0"/>
        </g>
        <g id="g174" transform="translate(512.6772,43.8176)">
          <path
            d="m 0,0 c -0.917,0 -1.752,0.334 -2.351,0.941 l 0.993,1.538 c 0.353,-0.403 0.78,-0.618 1.289,-0.618 0.327,0 0.846,0.182 0.846,0.668 0,0.466 -0.452,0.636 -1.023,0.851 -0.881,0.332 -1.977,0.745 -1.977,2.473 0,1.606 1.276,2.472 2.477,2.472 0.777,0 1.57,-0.334 2.175,-0.918 L 1.524,6.007 C 1.091,6.392 0.805,6.59 0.302,6.59 0.01,6.59 -0.397,6.386 -0.397,6.003 -0.397,5.529 0.053,5.366 0.624,5.158 1.507,4.838 2.606,4.439 2.606,2.667 2.606,1.047 1.583,0 0,0"
            id="path176" inkscape:connector-curvature="0"/>
        </g>
        <g id="g178" transform="translate(522.6573,44.0017)">
          <path
            d="M 0,0 -3.909,0 -3.943,7.923 -0.115,7.957 0.212,6.262 -2.246,6.222 -2.213,4.887 -0.516,4.921 -0.482,3.219 -2.246,3.186 -2.213,1.701 0.383,1.735 0,0 Z"
            id="path180" inkscape:connector-curvature="0"/>
        </g>
        <g id="g182" transform="translate(530.144,43.9056)">
          <path
            d="M 0,0 0,3.35 -2.117,3.316 -2.084,0.221 -3.776,0.004 -3.813,8.019 -2.121,8.237 -2.084,5.144 0.034,5.177 0,8.019 1.691,8.237 1.729,0.221 0,0 Z"
            id="path184" inkscape:connector-curvature="0"/>
        </g>
        <g id="g186" transform="translate(536.4162,46.1865)">
          <path d="M 0,0 -2.861,0 -2.895,1.598 -0.034,1.632 0,0 Z" 
            id="path188" inkscape:connector-curvature="0"/>
        </g>
        <g id="g190" transform="translate(544.7134,43.8176)">
          <path
            d="m 0,0 c -1.712,0 -2.693,1.026 -2.693,2.817 l 0,5.29 1.692,0.218 0.038,-4.956 c 0,-1.029 0.319,-1.508 1.002,-1.508 0.978,0 1.169,0.709 1.169,1.933 l 0,4.313 1.691,0.218 0.038,-5.37 C 2.937,1.16 1.784,0 0,0"
            id="path192" inkscape:connector-curvature="0"/>
        </g>
        <g id="g194" transform="translate(557.408,43.8176)">
          <path
            d="M 0,0 -0.053,0 -4.468,4.518 -4.409,0.309 -6.1,0.092 -6.138,8.291 -6.062,8.315 -1.672,3.899 -1.729,8.107 -0.037,8.325 0,0 Z"
            id="path196" inkscape:connector-curvature="0"/>
        </g>
        <g id="g198" transform="translate(562.8054,50.2238)">
          <path
            d="m 0,0 0,-4.521 0.484,0.034 c 1.026,0 1.892,1.027 1.892,2.243 C 2.376,-1.028 1.51,0 0.484,0 L 0,0 Z m 0.631,-6.222 -2.327,0 -0.034,7.923 2.361,0.034 c 1.948,0 3.475,-1.748 3.475,-3.979 0,-2.23 -1.527,-3.978 -3.475,-3.978"
            id="path200" inkscape:connector-curvature="0"/>
        </g>
        <g id="g202" transform="translate(456.8667,28.5459)">
          <path d="M 0,0 -3.448,0 -3.482,7.923 -1.79,8.141 -1.752,1.828 0.414,1.861 0,0 Z"
            id="path204" inkscape:connector-curvature="0"/>
        </g>
        <g id="g206" transform="translate(464.8744,28.5459)">
          <path
            d="M 0,0 -3.908,0 -3.942,7.923 -0.114,7.957 0.212,6.262 -2.246,6.222 -2.212,4.887 -0.515,4.921 -0.482,3.219 -2.246,3.185 -2.212,1.702 0.384,1.735 0,0 Z"
            id="path208" inkscape:connector-curvature="0"/>
        </g>
        <g id="g210" transform="translate(471.1344,28.3618)">
          <path
            d="m 0,0 c -0.917,0 -1.752,0.334 -2.351,0.942 l 0.993,1.537 c 0.353,-0.403 0.78,-0.618 1.289,-0.618 0.327,0 0.847,0.182 0.847,0.668 0,0.466 -0.452,0.636 -1.024,0.851 -0.881,0.332 -1.978,0.745 -1.978,2.473 0,1.606 1.277,2.472 2.478,2.472 0.777,0 1.57,-0.334 2.174,-0.917 L 1.524,6.007 C 1.091,6.392 0.806,6.59 0.303,6.59 c -0.293,0 -0.7,-0.204 -0.7,-0.587 0,-0.474 0.45,-0.637 1.021,-0.845 C 1.506,4.838 2.605,4.439 2.605,2.667 2.605,1.047 1.582,0 0,0"
            id="path212" inkscape:connector-curvature="0"/>
        </g>
        <g id="g214" transform="translate(481.6126,28.5459)">
          <path
            d="M 0,0 -3.908,0 -3.942,7.923 -0.114,7.957 0.212,6.262 -2.246,6.222 -2.212,4.887 -0.515,4.921 -0.482,3.219 -2.246,3.185 -2.212,1.702 0.384,1.735 0,0 Z"
            id="path216" inkscape:connector-curvature="0"/>
        </g>
        <g id="g218" transform="translate(487.447,34.883)">
          <path
            d="m 0,0 0,-1.554 0.387,0.034 c 0.482,0 0.748,0.278 0.748,0.783 C 1.135,-0.072 0.57,0 0.328,0 L 0,0 Z m 0,-3.139 0,-1.611 0.406,0.033 c 0.622,0 0.925,0.253 0.925,0.772 0,0.668 -0.378,0.806 -0.944,0.806 l -0.387,0 z m 0.592,-3.198 -2.288,0 -0.034,7.923 1.931,0.034 c 0.994,0 2.663,-0.274 2.663,-2.104 0,-0.762 -0.344,-1.408 -0.898,-1.687 0.664,-0.277 1.094,-1.052 1.094,-1.936 0,-1.418 -0.899,-2.23 -2.468,-2.23"
            id="path220" inkscape:connector-curvature="0"/>
        </g>
        <g id="g222" transform="translate(498.3311,28.5459)">
          <path
            d="M 0,0 -3.907,0 -3.941,7.923 -0.114,7.957 0.212,6.262 -2.246,6.222 -2.212,4.887 -0.516,4.921 -0.482,3.219 -2.246,3.185 -2.212,1.702 0.384,1.735 0,0 Z"
            id="path224" inkscape:connector-curvature="0"/>
        </g>
        <g id="g226" transform="translate(506.2989,28.4498)">
          <path
            d="M 0,0 0,3.351 -2.118,3.317 -2.084,0.221 -3.776,0.004 -3.813,8.019 -2.121,8.237 -2.084,5.144 0.034,5.178 0,8.019 1.691,8.237 1.729,0.221 0,0 Z"
            id="path228" inkscape:connector-curvature="0"/>
        </g>
        <g id="g230" transform="translate(512.2233,28.4498)">
          <path d="M 0,0 0,8.019 1.691,8.237 1.729,0.221 0,0 Z" 
            id="path232" inkscape:connector-curvature="0"/>
        </g>
        <g id="g234" transform="translate(524.2676,28.3618)">
          <path
            d="M 0,0 -0.053,0 -4.468,4.519 -4.41,0.309 -6.102,0.092 -6.14,8.291 -6.062,8.316 -1.673,3.899 -1.73,8.107 -0.038,8.325 0,0 Z"
            id="path236" inkscape:connector-curvature="0"/>
        </g>
        <g id="g238" transform="translate(530.0452,34.768)">
          <path
            d="m 0,0 0,-4.52 0.484,0.033 c 1.026,0 1.894,1.027 1.894,2.243 C 2.378,-1.027 1.51,0 0.484,0 L 0,0 Z m 0.631,-6.222 -2.327,0 -0.034,7.923 2.361,0.034 c 1.948,0 3.475,-1.747 3.475,-3.979 0,-2.23 -1.527,-3.978 -3.475,-3.978"
            id="path240" inkscape:connector-curvature="0"/>
        </g>
        <g id="g242" transform="translate(541.8785,28.5459)">
          <path
            d="M 0,0 -3.909,0 -3.943,7.923 -0.115,7.957 0.212,6.262 -2.246,6.222 -2.213,4.887 -0.515,4.921 -0.482,3.219 -2.246,3.185 -2.213,1.702 0.384,1.735 0,0 Z"
            id="path244" inkscape:connector-curvature="0"/>
        </g>
        <g id="g246" transform="translate(547.7278,34.7727)">
          <path
            d="m 0,0 c -0.054,0 -0.109,-0.002 -0.164,-0.005 l 0.031,-2.174 c 0.027,0.029 0.085,0.026 0.14,0.026 0.328,0 0.584,0.084 0.761,0.25 0.201,0.186 0.303,0.481 0.303,0.874 C 1.071,-0.117 0.499,0 0,0 m 1.793,-6.42 -1.97,3.754 0.044,-3.436 -1.692,-0.217 -0.038,8.015 1.921,0.034 C 1.853,1.73 2.8,0.876 2.8,-0.742 2.8,-1.511 2.422,-2.456 1.696,-2.774 L 3.519,-5.727 1.793,-6.42 Z"
            id="path248" inkscape:connector-curvature="0"/>
        </g>
        <g id="g250" transform="translate(555.7693,28.4498)">
          <path d="M 0,0 0,6.226 -1.687,6.192 -1.299,8.027 3.309,8.053 3.342,6.226 1.696,6.192 1.73,0.221 0,0 Z"
            id="path252" inkscape:connector-curvature="0"/>
        </g>
        <g id="g254" transform="translate(566.5457,28.5459)">
          <path
            d="M 0,0 -3.909,0 -3.943,7.923 -0.115,7.957 0.212,6.262 -2.246,6.222 -2.213,4.887 -0.515,4.921 -0.482,3.219 -2.246,3.185 -2.213,1.702 0.384,1.735 0,0 Z"
            id="path256" inkscape:connector-curvature="0"/>
        </g>
      </g>
    </g>
    <path d="m 0,0 70.866,0 0,841.89 L 0,841.89 0,0 Z" style="fill:#2db2b1;fill-opacity:1;fill-rule:nonzero;stroke:none"
      id="path258" inkscape:connector-curvature="0"/>
    <g id="g264">
      <g id="g266" clip-path="url(#clipPath268)">
        <g id="g272">
          <g id="g274"/>
          <g id="g284">
            <g clip-path="url(#clipPath276)" id="g286">
              <g id="g288">
                <g clip-path="url(#clipPath280)" id="g290">
                  <g id="g292">
                    <g transform="matrix(503.99998,0,0,382.79999,77.951508,356.37823)" id="g294">
                      <image width="1" height="1" preserveAspectRatio="none" transform="matrix(1,0,0,-1,0,1)"
                        xlink:href="register-image.png"
                        id="image296"/>
                    </g>
                  </g>
                </g>
              </g>
            </g>
          </g>
        </g>
        <g id="g298" transform="translate(166.8447,462.2588)">
          <path
            d="m 0,0 82.333,0 c 0,0 5,0.333 4.5,-5.333 -0.381,-4.32 -1.333,-22 -1.333,-22 -0.167,-3.5 0.167,-10.167 0.333,-12.167 0.167,-2 1.5,-4.333 0.334,-5 -1.167,-0.667 -86.834,0 -86.834,0 0,0 -5.214,-0.309 -5.75,3.333 -0.416,2.834 -0.25,12.667 -0.25,12.667 l 0,11.167 c 0,0 0.25,5.5 1.167,11.333 0.573,3.645 1.833,6 5.5,6"
            style="fill:#2db2b1;fill-opacity:1;fill-rule:nonzero;stroke:none" id="path300" inkscape:connector-curvature="0"/>
        </g>
        <g id="g302" transform="translate(166.8447,462.2588)">
          <path
            d="m 0,0 82.333,0 c 0,0 5,0.333 4.5,-5.333 -0.381,-4.32 -1.333,-22 -1.333,-22 -0.167,-3.5 0.167,-10.167 0.333,-12.167 0.167,-2 1.5,-4.333 0.334,-5 -1.167,-0.667 -86.834,0 -86.834,0 0,0 -5.214,-0.309 -5.75,3.333 -0.416,2.834 -0.25,12.667 -0.25,12.667 l 0,11.167 c 0,0 0.25,5.5 1.167,11.333 0.573,3.645 1.833,6 5.5,6 z"
            style="fill:none;stroke:#756662;stroke-width:0.89999998;stroke-linecap:round;stroke-linejoin:miter;stroke-miterlimit:4;stroke-dasharray:none;stroke-opacity:1"
            id="path304" inkscape:connector-curvature="0"/>
        </g>
      </g>
    </g>
    <path d="m 170.362,419.244 77.953,0 0,39.118 -77.953,0 0,-39.118 z"
      style="fill:#2db2b1;fill-opacity:1;fill-rule:nonzero;stroke:none" id="path306" inkscape:connector-curvature="0"/>
    <text transform="matrix(1,0,0,-1,170.3622,428.3623)"
      style="font-variant:normal;font-weight:normal;font-stretch:normal;font-size:40px;font-family:StoneSansSemibold;-inkscape-font-specification:StoneSans-Semibold;writing-mode:lr-tb;fill:#ffffff device-cmyk(0,0,0,0);fill-opacity:1;fill-rule:nonzero;stroke:none"
      id="text308">
      <tspan x="0 24.719999 46.599998" y="0" sodipodi:role="line" id="tspan310" style="fill:#ffffff device-cmyk(0,0,0,0)">neu</tspan>
    </text>
    <g id="g320">
      <g id="g322" clip-path="url(#clipPath324)">
        <g id="g328" transform="translate(477.9451,365.0547)">
          <path
            d="m 0,0 c 40.874,0 74.008,33.135 74.008,74.008 0,40.874 -33.134,74.008 -74.008,74.008 -40.874,0 -74.008,-33.134 -74.008,-74.008 C -74.008,33.135 -40.874,0 0,0"
            style="fill:#2db2b1;fill-opacity:1;fill-rule:nonzero;stroke:none" id="path330" inkscape:connector-curvature="0"/>
        </g>
      </g>
    </g>
  </g>
</svg>
